<svg width="24" height="24" viewBox="0 0 24 24" fill="none" xmlns="http://www.w3.org/2000/svg">
<path d="M0 12C0 5.37258 5.37258 0 12 0C18.6274 0 24 5.37258 24 12C24 18.6274 18.6274 24 12 24C5.37258 24 0 18.6274 0 12Z" fill="#7CB342"/>
<path d="M12 6H7.33333C6.97971 6 6.64057 6.14048 6.39052 6.39052C6.14048 6.64057 6 6.97971 6 7.33333V16.6667C6 17.0203 6.14048 17.3594 6.39052 17.6095C6.64057 17.8595 6.97971 18 7.33333 18H16.6667C17.0203 18 17.3594 17.8595 17.6095 17.6095C17.8595 17.3594 18 17.0203 18 16.6667V12" stroke="white" stroke-width="1.33333" stroke-linecap="round" stroke-linejoin="round"/>
<path d="M16.2499 5.75015C16.5151 5.48493 16.8748 5.33594 17.2499 5.33594C17.625 5.33594 17.9847 5.48493 18.2499 5.75015C18.5151 6.01537 18.6641 6.37508 18.6641 6.75015C18.6641 7.12522 18.5151 7.48493 18.2499 7.75015L12.2412 13.7595C12.0829 13.9176 11.8874 14.0334 11.6726 14.0962L9.75723 14.6562C9.69987 14.6729 9.63906 14.6739 9.58117 14.6591C9.52329 14.6442 9.47045 14.6141 9.4282 14.5719C9.38594 14.5296 9.35583 14.4768 9.341 14.4189C9.32617 14.361 9.32717 14.3002 9.3439 14.2428L9.9039 12.3275C9.96692 12.1129 10.0829 11.9175 10.2412 11.7595L16.2499 5.75015Z" stroke="white" stroke-width="1.33333" stroke-linecap="round" stroke-linejoin="round"/>
</svg>
