<svg width="32" height="32" viewBox="0 0 32 32" fill="none" xmlns="http://www.w3.org/2000/svg">
<path d="M13.6711 8.13615C13.7262 7.55649 13.9954 7.0182 14.4262 6.62643C14.8569 6.23467 15.4183 6.01758 16.0006 6.01758C16.5828 6.01758 17.1442 6.23467 17.575 6.62643C18.0057 7.0182 18.275 7.55649 18.3301 8.13615C18.3632 8.51061 18.486 8.87157 18.6882 9.18849C18.8904 9.50541 19.1659 9.76896 19.4915 9.95683C19.8171 10.1447 20.1832 10.2514 20.5588 10.2678C20.9343 10.2842 21.3083 10.2099 21.6491 10.0512C22.1782 9.81093 22.7777 9.77617 23.3311 9.95364C23.8844 10.1311 24.3519 10.5081 24.6426 11.0113C24.9333 11.5144 25.0263 12.1077 24.9037 12.6757C24.7811 13.2437 24.4515 13.7458 23.9791 14.0842C23.6714 14.3 23.4203 14.5868 23.247 14.9202C23.0736 15.2536 22.9831 15.6239 22.9831 15.9997C22.9831 16.3754 23.0736 16.7457 23.247 17.0791C23.4203 17.4125 23.6714 17.6993 23.9791 17.9152C24.4515 18.2535 24.7811 18.7556 24.9037 19.3236C25.0263 19.8916 24.9333 20.4849 24.6426 20.988C24.3519 21.4912 23.8844 21.8682 23.3311 22.0457C22.7777 22.2231 22.1782 22.1884 21.6491 21.9482C21.3083 21.7894 20.9343 21.7151 20.5588 21.7315C20.1832 21.7479 19.8171 21.8546 19.4915 22.0425C19.1659 22.2303 18.8904 22.4939 18.6882 22.8108C18.486 23.1277 18.3632 23.4887 18.3301 23.8632C18.275 24.4428 18.0057 24.9811 17.575 25.3729C17.1442 25.7646 16.5828 25.9817 16.0006 25.9817C15.4183 25.9817 14.8569 25.7646 14.4262 25.3729C13.9954 24.9811 13.7262 24.4428 13.6711 23.8632C13.638 23.4886 13.5152 23.1275 13.3129 22.8104C13.1107 22.4934 12.835 22.2298 12.5093 22.0419C12.1836 21.854 11.8173 21.7474 11.4416 21.7311C11.0659 21.7147 10.6919 21.7892 10.3511 21.9482C9.82195 22.1884 9.22239 22.2231 8.66906 22.0457C8.11573 21.8682 7.64823 21.4912 7.35754 20.988C7.06685 20.4849 6.97377 19.8916 7.09642 19.3236C7.21907 18.7556 7.54866 18.2535 8.02106 17.9152C8.32868 17.6993 8.57979 17.4125 8.75315 17.0791C8.92651 16.7457 9.01701 16.3754 9.01701 15.9997C9.01701 15.6239 8.92651 15.2536 8.75315 14.9202C8.57979 14.5868 8.32868 14.3 8.02106 14.0842C7.54932 13.7456 7.22031 13.2437 7.09796 12.6761C6.97561 12.1085 7.06867 11.5157 7.35904 11.0129C7.64942 10.51 8.11637 10.1331 8.66915 9.95539C9.22193 9.77766 9.82104 9.81179 10.3501 10.0512C10.6908 10.2099 11.0648 10.2842 11.4404 10.2678C11.8159 10.2514 12.182 10.1447 12.5076 9.95683C12.8332 9.76896 13.1088 9.50541 13.3109 9.18849C13.5131 8.87157 13.6359 8.51061 13.6691 8.13615" stroke="#0A0A0A" stroke-width="2" stroke-linecap="round" stroke-linejoin="round"/>
<path d="M16 19C17.6569 19 19 17.6569 19 16C19 14.3431 17.6569 13 16 13C14.3431 13 13 14.3431 13 16C13 17.6569 14.3431 19 16 19Z" stroke="#0A0A0A" stroke-width="2" stroke-linecap="round" stroke-linejoin="round"/>
</svg>
